<?xml version="1.0" encoding="utf-8"?>
<!-- Generator: Adobe Illustrator 20.0.0, SVG Export Plug-In . SVG Version: 6.00 Build 0)  -->
<svg version="1.1" id="Layer_1" xmlns="http://www.w3.org/2000/svg" xmlns:xlink="http://www.w3.org/1999/xlink" x="0px" y="0px"
	 viewBox="0 0 100.3 100.3" style="enable-background:new 0 0 100.3 100.3;" xml:space="preserve">
<style type="text/css">
	.st0{fill:#FFFFFF;}
</style>
<title>arrow-left</title>
<path class="st0" d="M0,50.1c0,27.7,22.4,50.1,50.1,50.1s50.1-22.4,50.1-50.1S77.8,0,50.1,0l0,0l0,0C22.5,0,0,22.5,0,50.1z
	 M96.3,50.1c0,25.5-20.7,46.1-46.1,46.1C24.7,96.3,4,75.6,4,50.1C4,24.7,24.6,4,50.1,4C75.6,4,96.2,24.6,96.3,50.1
	C96.3,50.1,96.3,50.1,96.3,50.1z M55.1,35.6l10.8,12.5H30.1c-1.1,0-2,0.9-2,2s0.9,2,2,2h35.7L55.1,64.6c-0.8,0.7-0.9,2-0.1,2.8
	c0.7,0.8,2,0.9,2.8,0.1c0.1-0.1,0.2-0.2,0.3-0.3l14.8-17.1L58.1,33c-0.7-0.8-2-0.9-2.8-0.2C54.4,33.5,54.3,34.8,55.1,35.6L55.1,35.6
	z"/>
</svg>
