<?xml version="1.0" encoding="utf-8"?>
<!-- Generator: Adobe Illustrator 19.2.1, SVG Export Plug-In . SVG Version: 6.00 Build 0)  -->
<svg version="1.1" id="Layer_1" xmlns="http://www.w3.org/2000/svg" xmlns:xlink="http://www.w3.org/1999/xlink" x="0px" y="0px"
	 viewBox="0 0 967.3 235.4" style="enable-background:new 0 0 967.3 235.4;" xml:space="preserve">
<style type="text/css">
	.st0{fill:#FFFFFF;}
</style>
<g>
	<path class="st0" d="M297,157.4c-1.3-1.3-2.6-3-3-4.7c-0.9-2.6-1.7-5.5-2.1-9.4c-0.4-5.5,0-12.4,1.3-17.5c0.9-3.4,2.1-5.5,3.8-7.3
		c0.9-1.3,1.7-2.1,3-3.4s3.4-2.6,5.5-3c2.6-0.9,6-0.4,8.5,0c1.7,0.4,3,1.3,4.7,2.6c2.1,1.7,4.7,4.3,6.4,8.5
		c2.1,5.5,2.6,13.7,2.1,19.6c-0.4,4.3-0.9,7.3-1.7,10.2c-0.9,2.1-1.7,3.8-2.6,5.5c-0.4,0.4-0.9,0.9-1.3,1.3c-0.9,0.9-1.7,1.7-3,2.1
		c-1.3,0.9-3,1.3-4.3,1.7c-1.3,0.4-2.6,0.4-3.4,0.9c-2.6,0-4.7-0.4-6.8-1.7c-1.3-0.4-2.1-1.3-3.4-2.1
		C299.1,159.9,298.2,158.7,297,157.4L297,157.4 M480,164.6l-38-3.8c-0.4,0.9-0.9,1.7-1.7,2.6c-0.9,0.9-1.3,1.7-2.1,2.6
		c-0.4,0.4-1.3,0.9-1.7,1.3s-0.9,0.4-1.3,0.4c-1.3,0.9-3,1.7-4.3,2.1c-2.6,0.9-5.1,1.3-7.7,0.9c-1.3,0-3,0-4.3-0.4
		c-2.1-0.4-4.3-1.3-6-2.1c-2.1-1.3-3.8-2.6-5.5-4.3c-0.4-0.9-0.9-1.3-1.3-2.1c-0.9-1.3-1.3-3-2.1-4.3c-0.9-3-1.7-6-2.1-9H480V164.6
		L480,164.6 M422.8,105.7c2.1,0,4.3,0.4,6.4,1.3c1.3,0.4,2.1,0.9,3.4,1.7c1.3,0.9,2.6,1.7,3.8,2.6c1.7,2.1,3.4,4.3,4.3,6.4
		s1.3,4.3,1.7,6.4c0,1.3,0.4,3,0.4,4.3h-41c0-1.3,0.4-2.6,0.9-3.8c0.4-1.7,1.3-4.3,2.1-6c0.4-1.3,0.9-2.1,1.7-3
		c0.9-1.3,2.6-3.4,3.8-4.7c1.3-1.3,2.6-2.1,3.4-2.6c1.3-0.9,2.6-1.3,3.8-1.7c1.3-0.4,2.6-0.4,3.4-0.9
		C421.1,105.7,422,105.7,422.8,105.7L422.8,105.7 M597.8,72.5h369.5V42.2H597.8V0L556,22.2v19.6H154v30.3h401.9v11.1
		c-2.1-0.4-4.3-0.9-6-1.3c-1.3,0-2.1-0.4-3.4-0.4c-1.7,0-4.3,0-6.4,0.4c-2.1,0.4-4.3,0.9-6,1.7c-1.3,0.9-2.6,1.3-3.8,2.6
		c-2.1,1.7-3.8,3-5.5,5.1c-1.7,1.7-3,3.8-4.3,5.5c-0.9,1.7-1.7,3-2.6,4.7V84h-38v28.2v-0.4c0-0.4,0-0.4-0.4-0.9
		c0-0.4-0.4-0.9-0.4-0.9c-0.4-0.4-0.4-0.4-0.9-0.9c-2.1-5.1-5.1-9.4-9.8-13.2c-5.5-4.7-13.2-9-22.2-11.5c-9.8-2.6-21.8-3-31.1-2.6
		c-7.3,0.4-13.2,1.7-18.8,3.4c-4.7,1.7-9.4,3.8-13.2,6.4c-3,2.1-5.5,3.8-7.7,6.4c-2.1,1.7-4.3,3.8-6,6.4s-3.4,5.1-4.7,8.1
		c-0.4-1.7-0.9-3-1.7-4.7s-2.1-3.8-3-5.5c-0.9-1.3-1.3-2.6-2.1-3.4c-2.1-3-4.3-5.1-6.8-7.3c-4.3-3.4-9.4-6.4-14.5-7.7
		c-3.8-0.9-7.7-1.3-11.5-1.7c-4.3,0-9,0.4-13.2,1.3c-3,0.9-5.5,1.7-8.1,3c-3,1.7-6,3.8-8.5,6.4c-2.6,2.6-4.7,5.1-6.8,8.1V84.4h-67
		l-20.5,73l-23-73h-35v-41H96.9v52.5H45.7V42.6H0v150.2h45.7v-61h51.2v61h46.5v-87l37.1,86.6c-0.4,0.9-1.3,2.1-1.7,3
		c-0.4,1.3-1.3,2.1-2.1,3.8c-1.3,2.1-3.4,4.7-4.3,5.5c-0.4,0.4-0.9,0-0.9,0h-30.3l0,0c-0.4,0-0.4,0-0.9,0H0.9V235h155.3
		c2.1,0,4.3,0.4,6.8,0.4c3.4,0,7.7-0.4,11.1-0.4c3,0,5.1-0.4,7.3-0.4c5.1-0.4,9.8-1.7,13.7-3.4s7.3-3.4,9.8-5.5
		c2.6-2.1,4.3-4.3,6.4-7.7c3-4.7,6-10.7,9-18.3l29.9-80.6v114.3H292v-51.2c2.6,2.1,4.7,3.8,7.3,5.5c2.6,1.7,5.1,3,8.1,4.3
		s6.8,2.1,9.8,2.6c2.6,0.4,4.7,0.9,6.4,0.9c2.1,0,4.3-0.4,6.4-0.9c4.3-0.9,8.5-1.7,12.4-3.4c5.1-1.7,9.8-5.5,14.1-9.8
		c2.1-2.1,3.8-4.7,5.5-7.3c1.3-2.1,2.6-4.7,3.8-7.3l0.4,0.4c0,0.4,0.4,0.9,0.4,0.9c0,0.4,0.4,0.4,0.4,0.9c0,0.4,0,0.4,0,0.4
		c2.6,4.3,5.1,7.7,8.5,11.1s7.7,6.4,11.9,9c3.4,1.3,6.8,2.6,10.7,3.4c4.7,0.9,10.2,1.7,14.5,2.1c3.4,0.4,6.4,0.4,9,0.9
		c5.1-0.4,10.2-0.9,14.5-1.3c3.8-0.4,7.7-0.9,11.1-1.7c3.4-0.9,7.3-2.1,10.7-3.8c3.8-1.7,7.3-4.3,10.7-7.3
		c3.8-3.4,7.3-7.3,10.7-11.9v22.5H521v-36.7c0-10.2,0.9-18.3,2.1-23.9c0.4-3,1.3-5.5,2.1-7.3c0.4-1.7,1.3-3,2.1-4.3
		c0.9-0.9,1.3-1.7,2.1-2.6c0.9-0.9,2.1-1.7,3.4-2.6c1.3-0.4,2.6-0.9,3.8-1.3c1.3,0,2.1,0,3.4,0c0.9,0,1.7-0.4,3,0
		c1.7,0.4,3.8,0.9,5.5,1.7c0.9,0.4,1.7,0.9,2.1,0.9s0.9,0.4,1.3,0.4l3-8.5v44.4c0,8.1,0.9,14.9,2.1,20.1c0.9,3.4,1.7,6,3,8.5
		s3,4.7,4.7,6.8c1.3,1.3,3,2.6,4.7,3c1.3,0.9,3,1.7,5.1,2.1c3,0.9,6.8,1.3,10.2,1.7c3,0.4,5.1,0.4,7.3,0.4
		c6.8-0.4,14.1-1.3,20.9-2.1c5.1-0.9,10.7-1.7,15.8-2.6c1.7,0.9,3.8,1.7,6,2.6c2.6,0.9,5.5,1.3,8.1,1.7c2.1,0.4,3.4,0.4,5.1,0.4
		c1.3,0,3,0,4.7-0.4c3-0.4,6.8-0.9,9.8-1.7c3-0.9,5.1-1.7,7.3-3c2.6-1.3,5.1-3,7.7-5.1c2.1-1.7,4.3-3.8,6-5.5c1.3-1.3,2.6-3,3.8-4.7
		v17.6H726V83.6h-41.8v52.5c0,5.1-0.4,9.4-1.3,12.4c-0.4,1.7-0.9,3.4-1.3,4.7c-0.4,0.9-0.9,1.7-1.3,2.6c-0.9,1.3-2.1,2.6-3.8,3.8
		c-1.3,0.9-2.6,1.7-4.7,2.1c-2.6,0.4-6.4,0.4-9.4,0c-2.6-0.4-4.3-1.7-6-3.4c-0.4-0.4-0.9-1.3-1.3-1.7c-0.4-1.3-0.9-2.1-1.3-3.4
		c-0.9-3-1.3-6-1.3-9V83.6H612v69.1c0,0.4,0,0.9,0,1.7c0,1.3,0.4,3.8,0.4,5.5s0,2.6,0.4,3.8c-0.4,0-1.3,0.4-1.7,0.4
		c-0.9,0.4-2.6,0.9-3.4,0.9c-0.4,0-0.9,0-1.3,0s-0.4,0-0.9-0.4c-0.4,0-1.3-0.4-1.7-0.4c-0.9-0.4-1.7-0.9-2.6-1.3
		c-0.4-0.4-0.9-0.9-0.9-0.9c-0.4-0.4-0.4-0.4-0.4-0.9l-0.4-0.4c-0.4-0.4-0.4-0.9-0.9-1.3c-0.4-0.9-0.4-1.7-0.4-2.6c0-1.3,0-3,0-4.7
		V72.3"/>
	<path class="st0" d="M905,105.7c2.1,0,4.7,0.4,6.4,1.3c1.3,0.4,2.1,0.9,3.4,1.7c1.3,0.9,2.6,1.7,3.8,2.6c0.4,0.4,0.9,1.3,1.7,1.7
		c0.9,1.3,1.7,2.6,2.6,4.3c0.9,2.1,1.7,4.3,2.1,6.4c0.4,1.7,0.9,3.4,0.9,5.1h-41c0.4-2.6,0.9-4.7,1.3-6.8c0.4-1.7,0.9-3.4,1.7-5.1
		c0.9-1.7,2.6-3.8,3.8-5.1c0.9-0.9,2.1-1.7,3-2.6c1.3-0.9,2.6-1.7,4.3-2.1C900.3,106.2,902.4,105.7,905,105.7L905,105.7 M939.9,88.3
		c-3-1.7-6.4-3-10.7-3.8c-5.5-1.3-12.4-2.6-20.5-3c-9.8-0.4-21.3,0.4-31.1,3.8c-9,3.4-16.6,9-21.3,13.2c-2.6,2.6-4.3,4.7-5.5,7.3
		c-1.7,2.1-3,5.1-4.3,7.7c0-2.1-0.4-4.3-0.9-6.4c-0.4-2.1-1.3-4.3-2.1-6.4s-2.1-3.8-3-5.5c-0.9-1.3-1.7-2.1-3-3
		c-1.7-2.1-3.8-3.8-6-5.1c-1.7-1.3-3.4-2.1-5.5-3c-1.7-0.9-3.8-1.3-6.4-1.7c-3-0.4-6.8-0.9-10.7-0.9c-4.3,0-8.1,0.4-11.9,1.3
		c-3,0.9-6,1.7-8.5,3c-0.9,0.4-1.7,0.9-2.6,1.7c-1.3,0.9-3,2.1-4.7,3.8c-1.7,1.3-3.4,3-5.1,4.7c-1.7,1.7-3.4,3.4-5.1,5.5V84h-39.3
		v108.8h41.8v-52.1c0-6,0.9-11.1,1.3-14.1c0.4-1.7,0.9-3,1.7-4.3c0.4-0.9,0.9-1.7,1.7-2.6c0.9-1.3,2.1-2.6,3.4-3.4
		c2.1-1.3,4.3-2.1,6.8-2.6c1.7,0,3.4,0,5.1,0c1.7,0.4,3.4,0.9,4.7,1.7s2.1,1.7,3,3c0.4,0.4,0.9,0.9,0.9,1.3c0.4,0.9,0.9,1.7,1.3,3
		c0.9,2.1,1.3,6,1.3,10.2v59.5h41.8v-28.2c0,0.4,0,0.4,0.4,0.9c0.4,0.4,0.4,1.3,0.9,2.1c0.4,0.9,0.9,1.7,1.7,2.1
		c0.4,0.4,0.4,0.9,0.9,1.7c0.9,1.3,1.7,2.6,3.4,4.7c3.4,3.8,9.4,10.2,16.2,13.7c6.4,3.4,13.7,4.3,19.6,5.1c5.1,0.4,9.4,1.3,13.7,1.3
		c5.1,0,9.8-0.4,14.5-1.3c4.3-0.4,8.5-1.3,12.4-2.1c4.3-0.9,8.1-2.1,11.9-4.3c4.3-2.1,8.1-5.5,11.9-9.4c3.8-4.3,7.7-8.5,10.7-14.1
		l-41-3.8c-0.9,0.9-1.3,1.7-2.1,2.6s-1.7,2.1-3,3c-0.9,0.9-1.7,1.3-2.6,1.3c-1.3,0.9-2.1,1.3-3.4,1.7c-3.8,1.3-8.1,1.7-12.4,0.9
		c-2.6-0.4-5.1-1.3-7.3-2.6c-1.7-0.9-3-2.1-4.7-3.8c-0.4-0.4-0.9-1.3-1.7-2.1s-1.3-2.6-2.1-3.8c-0.4-1.3-0.9-2.6-1.3-4.3
		c-0.4-1.7-0.4-3.4-0.4-5.5h82.8v-4.7c0-9.4-0.9-17.1-2.6-23.9c-1.3-5.1-3.4-9.8-5.1-12.8c-1.3-2.6-2.6-4.3-4.3-6.4
		s-3.8-4.7-6.4-6.4C946.3,92.1,943.4,90,939.9,88.3L939.9,88.3"/>
</g>
</svg>
